<?xml version="1.0" encoding="UTF-8"?>
<svg xmlns="http://www.w3.org/2000/svg" viewBox="0 0 2191 548" width="2191" height="548">
  <path d="M1555.19 167.1C1555.19 219.75 1555.19 272.4 1555.19 325.05C1562.53 325.05 1569.87 325.05 1577.2 325.05C1572.06 311.4 1568.58 298.39 1570.25 283.53C1572.53 263.2 1582.81 244.95 1599.66 233.11C1626.46 214.28 1665.93 217.61 1689.32 240.19C1704.32 254.67 1709.89 278.63 1708.75 298.84C1676.33 298.84 1643.92 298.84 1611.5 298.84C1612.21 305.05 1612.86 310.84 1616.08 316.39C1622.54 327.51 1638.01 333.09 1650.32 330.74C1659.71 328.96 1667.87 322.6 1674.5 316.05C1685.36 319.54 1696.22 323.02 1707.07 326.5C1688.12 360.67 1634.08 366.8 1602.13 349.39C1590.53 343.07 1584.87 334.8 1576.91 324.94C1576.91 335.08 1576.91 345.23 1576.91 355.38C1555.62 355.38 1534.34 355.38 1513.06 355.38C1513.06 350.55 1513.06 345.73 1513.06 340.9C1503.06 347.63 1496.03 354.59 1483.38 356.72C1456.3 361.29 1434.11 343.22 1424.18 319.36C1409.41 283.86 1424.42 228.2 1467.49 221.78C1473.85 220.83 1480.11 220.86 1486.45 222.12C1498.77 224.58 1503.91 230.8 1513.04 237.93C1513.04 224.39 1513.04 210.85 1513.04 197.31C1506.34 197.31 1499.64 197.31 1492.94 197.31C1492.94 187.24 1492.94 177.17 1492.94 167.1C1513.69 167.1 1534.44 167.1 1555.19 167.1ZM1203.95 174.08C1203.95 190.78 1203.95 207.48 1203.95 224.19C1211.95 224.19 1219.95 224.19 1227.95 224.19C1227.95 234.4 1227.95 244.6 1227.95 254.81C1220.13 254.81 1212.32 254.81 1204.5 254.81C1203.34 260.46 1203.95 266.69 1203.95 272.5C1203.95 283.5 1203.95 294.5 1203.95 305.5C1203.95 310.36 1202.55 319.07 1206.97 322.54C1211.94 326.44 1222.4 323.25 1227.94 321.94C1227.94 331.46 1227.94 340.98 1227.94 350.5C1221.49 353.99 1213.66 355.71 1206.45 356.75C1201.25 357.49 1195.72 357.51 1190.5 357.07C1168.79 355.22 1162.05 340.31 1162.03 320.5C1162.02 306.17 1162.03 291.83 1162.03 277.5C1162.03 270.12 1162.93 262 1161.5 254.81C1156.08 254.81 1150.66 254.81 1145.25 254.81C1145.25 244.6 1145.25 234.4 1145.25 224.19C1150.84 224.19 1156.43 224.19 1162.02 224.19C1162.02 217.29 1162.02 210.4 1162.02 203.5C1175.99 193.69 1189.97 183.89 1203.95 174.08ZM1916.53 174.47C1916.53 191.03 1916.53 207.59 1916.53 224.15C1924.56 224.15 1932.6 224.15 1940.64 224.15C1940.64 234.38 1940.64 244.62 1940.64 254.85C1932.6 254.85 1924.57 254.85 1916.53 254.85C1916.53 271.4 1916.53 287.95 1916.53 304.5C1916.53 309.4 1914.97 318.74 1919.08 322.42C1923.97 326.8 1935 322.72 1940.66 322.26C1940.66 331.68 1940.66 341.09 1940.66 350.5C1934.13 353.66 1927.05 355.32 1919.93 356.48C1914.83 357.3 1909.66 357.43 1904.5 357.14C1900.77 356.93 1897.01 356.36 1893.48 355.08C1873.5 347.84 1874.32 328.37 1874.32 310.5C1874.32 291.95 1874.32 273.41 1874.32 254.86C1868.89 254.86 1863.46 254.86 1858.03 254.86C1858.03 244.62 1858.03 234.38 1858.03 224.14C1863.47 224.14 1868.9 224.14 1874.33 224.14C1874.33 217.5 1874.33 210.86 1874.33 204.22C1888.4 194.3 1902.46 184.38 1916.53 174.47ZM732.2 244.5C734.67 252.6 732.81 268.47 730.01 276.5C732.78 278.76 735.94 280.46 738.61 282.9C751.27 294.46 759.3 309.35 765.5 325.14C767.13 315.13 766.02 303.84 767.13 293.5C767.9 286.33 771.1 271.94 769.93 265.54C766.22 245.28 753.68 227.22 741.18 211.5C752.3 211.02 767.21 219.06 776.09 225.45C814.43 252.97 819.51 308.62 787.6 343.12C781.12 350.12 773.44 356.6 764.35 359.78C729.43 371.99 689.31 341.83 693.08 304.5C694.13 294.12 698.74 284.01 705.94 276.44C711.54 270.57 718.43 266.4 723.45 259.93C726.51 255.99 729.67 246.73 732.2 244.5ZM478.5 222.12C479.83 236.1 481.17 250.08 482.5 264.07C481.43 264.06 479.68 264.43 478.71 263.84C477.43 263.07 477.14 260.04 476.7 258.73C475.37 254.74 473.68 250.67 471.42 247.11C462.89 233.69 439.99 222.87 426.76 236.26C419.21 243.89 421.55 255.92 428.51 263C443.9 278.66 468.04 283.98 481.48 302.04C485.06 306.86 486.88 312.58 487.14 318.5C488.06 338.97 474.47 353.72 454.45 356.79C446.19 358.06 437.6 357.17 429.64 354.81C423.86 353.11 418.63 350.17 412.5 351.15C410.17 353.81 410.79 355.91 407.5 357.07C406.67 356.79 406.49 357.29 405.73 356.81C404.36 355.93 404.01 348.34 403.72 346.62C401.98 336.38 400.02 325.64 399.5 315.26C400.71 315.17 402.13 314.68 403.31 315.22C404.78 315.89 405.44 319.09 406.06 320.46C408.07 324.91 410.36 329.32 413.2 333.29C422.47 346.22 441.21 355.23 456.4 346.94C468.6 340.29 470.56 323.77 462.42 313.1C459.55 309.34 455.39 306.62 451.55 303.97C437.71 294.42 416.09 285.67 408.04 270.43C395.5 246.7 416.24 220.81 441.5 222.16C446.5 222.42 451.51 223.75 456.23 225.33C459.99 226.59 464.45 229.01 468.48 228.8C475.28 228.45 471.01 222.48 478.5 222.12ZM1107.5 228.61C1107.8 227.54 1107.88 225.02 1108.81 224.39C1110.32 223.35 1114.7 224.17 1116.5 224.17C1123.59 224.17 1131.01 223.58 1138.02 224.5C1138.02 237.16 1138.02 249.83 1138.02 262.49C1128.18 262.49 1118.34 262.49 1108.5 262.49C1101.21 249.5 1090.44 248.72 1076.5 249.01C1070.86 249.13 1059.63 251.52 1061.65 259.73C1062.71 264.02 1066.56 265.17 1070.37 266.24C1077.24 268.17 1084.31 268.94 1091.28 270.29C1114.8 274.86 1141.34 279.45 1146.32 307.33C1147.03 311.34 1147.35 315.41 1146.88 319.5C1143.91 345.08 1123.28 356.7 1099.5 358.23C1086.03 359.1 1073.61 357.43 1062.5 349.64C1062.33 351.1 1062.58 354.07 1061.33 355.05C1059.85 356.21 1055.32 355.39 1053.5 355.39C1046.5 355.39 1039.5 355.39 1032.5 355.39C1030.97 350.12 1031.66 344.06 1031.66 338.5C1031.66 329.1 1031.19 319.55 1031.92 310.18C1041.93 310.18 1051.95 310.18 1061.96 310.18C1065.75 326.57 1078.76 331.21 1094.5 330.1C1102.13 329.56 1115.96 325.27 1111.81 314.66C1108.64 306.55 1090.04 305.17 1082.54 303.8C1061.64 299.98 1031.1 292.64 1027.08 267.49C1026.32 262.73 1026.39 257.6 1027.45 252.91C1035.21 218.83 1081.68 217.6 1107.5 228.61ZM1851.5 325.1C1858.03 325.1 1864.56 325.1 1871.09 325.1C1871.09 335.19 1871.09 345.29 1871.09 355.39C1850.9 355.39 1830.7 355.39 1810.5 355.39C1808.3 348.23 1809.61 339.09 1809.61 331.5C1809.61 318.17 1809.61 304.83 1809.61 291.5C1809.61 283.3 1810.34 274.71 1808.73 266.62C1805.47 250.32 1781.48 259.71 1773.22 266.5C1773.22 286.03 1773.22 305.57 1773.22 325.1C1780.04 325.1 1786.86 325.1 1793.68 325.1C1793.68 335.02 1793.68 344.93 1793.68 354.85C1787.44 355.9 1780.85 355.39 1774.5 355.39C1763.83 355.39 1753.17 355.39 1742.5 355.39C1733.02 355.39 1720.41 356.91 1711.46 354.6C1711.46 344.76 1711.46 334.92 1711.46 325.08C1718.09 325.08 1724.73 325.08 1731.37 325.08C1731.37 301.67 1731.37 278.26 1731.37 254.86C1724.74 254.86 1718.11 254.86 1711.48 254.86C1711.48 244.63 1711.48 234.41 1711.48 224.18C1732.06 224.18 1752.64 224.18 1773.21 224.18C1773.21 228.1 1773.21 232.01 1773.21 235.93C1776.36 234.57 1779.17 232.38 1782.19 230.63C1788.14 227.21 1794.83 224.43 1801.59 223.19C1806.89 222.21 1812.21 222.16 1817.53 222.74C1821.59 223.19 1825.29 223.86 1829.08 225.46C1853.81 235.89 1851.32 267.51 1851.32 289.5C1851.32 295.17 1851.32 300.83 1851.32 306.5C1851.32 312.68 1851.07 318.93 1851.5 325.1ZM2023.5 228.59C2023.75 227.41 2023.69 225.03 2024.75 224.33C2026.27 223.34 2030.7 224.17 2032.5 224.17C2039.57 224.17 2046.99 223.56 2053.98 224.5C2053.98 237.17 2053.98 249.83 2053.98 262.5C2044.15 262.5 2034.33 262.5 2024.5 262.5C2016.63 249.3 2007.02 248.74 1992.5 249.01C1986.59 249.13 1975.53 251.49 1977.54 259.95C1978.44 263.77 1982.16 265.05 1985.49 266.04C1992.62 268.17 2000.01 268.92 2007.25 270.32C2030.55 274.83 2056.4 279.29 2062.06 306.49C2062.94 310.73 2063.26 315.12 2062.78 319.47C2059.48 349.11 2032.06 359.8 2005.5 358.29C1995.76 357.73 1985.81 356.29 1978.5 349.29C1978.18 350.76 1978.47 354.07 1977.28 355.05C1975.86 356.22 1971.27 355.39 1969.5 355.39C1962.5 355.39 1955.5 355.39 1948.5 355.39C1946.9 350.16 1947.61 344.05 1947.61 338.5C1947.61 329.11 1947.12 319.54 1947.89 310.18C1957.88 310.18 1967.87 310.18 1977.86 310.18C1981.68 326.24 1993.73 331.25 2009.5 330.17C2017.42 329.63 2031.52 325.95 2027.77 314.71C2025.14 306.83 2005.51 305.07 1998.53 303.83C1978.38 300.25 1947.34 292.52 1943.12 268.47C1942.33 263.95 1942.35 260.01 1942.96 255.5C1944.15 246.6 1949 239.09 1955.87 233.42C1974.49 218.05 2002.33 220.4 2023.5 228.59ZM177.53 225.5C175.71 230.22 166.66 226.13 165.18 232.58C163.76 238.82 169.51 249.67 171.85 255.62C177.23 269.29 182.49 283.03 187.7 296.77C189.99 302.81 191.77 310.21 195.5 315.41C200.39 302.48 205.13 289.5 210.12 276.61C211.46 273.17 215.74 264.91 215.65 261.57C215.57 258.74 213.23 254.97 212.21 252.32C210.02 246.67 208.43 240.39 205.41 235.11C203.56 231.85 200.89 229.38 197.18 228.41C193.53 227.46 191.51 228.95 189.7 225.5C190.11 225.16 190.16 224.44 190.63 224.18C193.04 222.85 198.76 223.95 201.5 223.95C210.83 223.95 220.17 223.95 229.5 223.95C231.76 223.95 239.67 223.2 241.31 224.18C243.14 225.29 240.52 224.03 242.08 225.5C241.79 226.17 242.13 226.57 241.68 227.17C240.02 229.33 229.97 225.74 228.17 232.57C226.44 239.15 231.54 247.58 233.88 253.58C239.23 267.27 244.56 280.98 249.76 294.73C252.07 300.82 254.56 311.02 258.5 315.87C265.65 297.25 272.42 278.46 279.22 259.7C281.7 252.86 287.75 240.95 285.67 233.77C283.63 226.75 275.82 229.52 272.85 227.49C272.04 226.94 272.38 226.3 272.07 225.5C273.39 224.15 271.16 225.22 272.74 224.21C274.58 223.04 279.36 223.95 281.5 223.95C288.5 223.95 295.5 223.95 302.5 223.95C304.46 223.95 308.59 223.16 310.31 224.18C312.14 225.29 309.52 224.03 311.08 225.5C309.57 229.33 305.79 228.11 302.15 230.61C298.67 232.99 296.7 236.87 295.28 240.74C285.58 267.24 276.72 294.06 267.24 320.67C264.6 328.06 262.06 335.48 259.43 342.87C257.89 347.22 256.74 351.95 254.5 355.97C253.59 355.81 252.77 356.07 251.93 355.51C250.73 354.71 250.3 351.95 249.83 350.67C247.96 345.59 245.93 340.56 243.99 335.51C238.34 320.79 232.87 306 227.32 291.24C225.16 285.48 223.41 279.32 220.5 273.89C212.32 292.59 206.28 312.56 199.31 331.76C197.2 337.58 193.32 352.31 189.5 356C185.9 354.78 185.93 351.39 184.62 347.8C181.67 339.73 178.78 331.65 175.86 323.57C169.32 305.46 162.73 287.39 156.29 269.24C152.52 258.63 148.85 247.78 143.81 237.69C142.16 234.38 140.29 231.37 136.94 229.56C133.97 227.95 130.56 228.66 129.25 225.5C130.34 224.28 128.45 225.2 129.8 224.29C131.77 222.94 137.16 223.95 139.5 223.95C148.5 223.95 157.5 223.95 166.5 223.95C170.01 223.95 175.46 222.87 177.53 225.5ZM683.64 224.18C706.2 219.3 712.68 252.9 691.46 256.91C669.49 261.05 663.25 228.59 683.64 224.18ZM381 226.5C380.69 227.36 381.1 228.04 380.22 228.65C379.4 229.22 377.46 228.9 376.5 228.99C371.65 229.47 365.07 230.45 363.26 235.74C360.46 243.92 361.93 253.96 361.93 262.5C361.93 279.5 361.93 296.5 361.93 313.5C361.93 322.46 360.14 335.94 363.3 344.23C366.23 351.9 377.38 348.76 380.28 351.13C381.19 351.87 380.71 352.55 381 353.5C379.56 354.75 381.87 353.8 380.25 354.68C378.38 355.7 370.01 354.86 367.5 354.86C356.83 354.86 346.17 354.86 335.5 354.86C333.08 354.86 325.58 355.65 323.73 354.68C321.92 353.75 324.51 354.82 322.89 353.5C323.22 352.5 322.73 351.9 323.68 351.12C326.96 348.45 338.21 352.23 340.8 343.32C343.15 335.2 342 325.86 342 317.5C342 301.5 342 285.5 342 269.5C342 259.44 343.82 245.39 340.53 235.96C338.64 230.57 332.52 229.55 327.5 229.01C326.51 228.9 324.61 229.24 323.75 228.66C322.82 228.03 323.25 227.4 322.89 226.5C324.54 225.04 321.77 226.32 323.69 225.24C325.43 224.26 333.16 225.02 335.5 225.02C346.17 225.02 356.83 225.02 367.5 225.02C369.91 225.02 378.55 224.22 380.28 225.24C381.97 226.24 379.55 225.13 381 226.5ZM509.56 353.5C510.14 352.13 509.05 352.91 509.92 351.67C510.9 350.26 513.99 350.32 515.5 350.01C519.75 349.16 524.43 347.98 525.72 343.25C528.09 334.51 526.88 324.47 526.88 315.5C526.88 298.83 526.88 282.17 526.88 265.5C526.88 256.87 528.76 242.3 524.91 234.57C523.01 230.74 518.39 229.77 514.47 229.15C513.22 228.95 510.94 229.32 510.05 228.24C509.25 227.27 510.13 227.62 509.56 226.5C510 226.18 510.11 225.48 510.59 225.24C513.15 223.95 518.65 225.02 521.5 225.02C530.5 225.02 539.5 225.02 548.5 225.02C556.77 225.02 565.26 224.49 573.5 225.16C600.96 227.38 628.92 239.45 637.8 267.6C639.78 273.88 640.86 280.9 641 287.5C641.15 294.72 640.23 301.85 638.33 308.78C636.85 314.17 634.67 319.49 631.7 324.24C613 354.17 580.13 354.86 548.5 354.86C539.5 354.86 530.5 354.86 521.5 354.86C517.45 354.86 512.75 355.67 509.56 353.5ZM841.5 225.06C856.5 257.33 871.5 289.61 886.5 321.88C901.17 289.6 915.83 257.32 930.5 225.04C940.17 225 949.83 225.02 959.5 225.02C962.84 225.02 967.52 224.08 969.56 226.5C968.65 229.5 966.61 228.8 963.71 229.33C959.2 230.15 954.54 231.77 953.24 236.71C950.41 247.44 952.14 265.92 952.14 277.5C952.14 291.17 952.14 304.83 952.14 318.5C952.14 326.37 951.36 334.72 953.11 342.45C954.19 347.25 958.1 348.96 962.52 349.92C965.96 350.67 968.83 349.68 969.56 353.5C966.95 356.16 960.23 354.86 956.5 354.86C946.83 354.86 937.17 354.86 927.5 354.86C923.36 354.86 917.88 355.85 914.74 353.5C915.15 352.41 914.38 352.67 915.04 351.67C915.93 350.33 919.03 350.41 920.5 350.14C924.42 349.4 929.13 348.46 930.71 344.24C933.85 335.81 932.12 322.56 932.12 313.5C932.12 298.5 932.12 283.5 932.12 268.5C932.12 260.99 933.27 252.27 931.5 245.03C914.83 281.64 898.17 318.25 881.5 354.86C878.07 353.84 877.53 350.64 876.07 347.45C873.25 341.27 870.38 335.12 867.52 328.96C855.14 302.21 842.5 275.52 830.5 248.59C829.34 255.34 830 262.63 830 269.5C830 281.83 830 294.17 830 306.5C830 317.94 828.35 331.31 832.3 342.25C833.87 346.59 837.28 348.72 841.62 349.76C843.29 350.16 847.01 350.11 848.1 351.67C849 352.95 847.86 352.09 848.47 353.5C845.43 355.54 841.35 354.86 837.5 354.86C829.5 354.86 821.5 354.86 813.5 354.86C809.9 354.86 804.71 355.85 802.23 353.5C803.19 349.61 806.49 350.51 810.14 349.57C814.88 348.36 818.4 346.29 819.89 341.45C822.57 332.75 821.61 322.5 821.61 313.5C821.61 297.17 821.61 280.83 821.61 264.5C821.61 256.27 823.33 242.18 819.69 234.78C817.51 230.35 811.95 229.5 807.5 229.02C806.54 228.91 804.59 229.23 803.77 228.66C802.89 228.04 803.31 227.37 803 226.5C804.45 225.13 802.03 226.24 803.72 225.24C805.8 224.01 811.1 225.02 813.5 225.02C822.83 225.02 832.17 224.95 841.5 225.06ZM548.07 234.5C545.28 240.83 546.95 253.32 546.95 260.5C546.95 279.83 546.95 299.17 546.95 318.5C546.95 324.83 546.94 331.17 546.95 337.5C546.95 340.07 546.46 343.05 548.49 345.01C551.13 347.56 555.13 347.08 558.5 347.08C567.26 347.1 575.95 346.49 584.31 343.74C594.85 340.27 604.1 334.09 610.42 324.89C624.06 305.02 622.37 267.59 605.55 249.94C595.07 238.96 582.21 234.89 567.62 232.68C561.53 231.76 553.3 230.6 548.07 234.5ZM1666.5 275.11C1665.63 265.61 1660.01 255.63 1651.06 251.46C1633.45 243.25 1612.29 255.29 1612.5 275.11C1630.5 275.11 1648.5 275.11 1666.5 275.11ZM1482.59 255.22C1472.54 256.94 1466.05 265.79 1463.56 275.12C1458.11 295.46 1464.66 328.73 1492.46 323.94C1505.26 321.73 1511.95 309.19 1513.12 297.5C1514.54 283.33 1513.6 266.65 1500.02 258.49C1494.83 255.37 1488.59 254.19 1482.59 255.22ZM654.5 265.2C655.09 268.28 654.78 271.36 655.16 274.48C656.69 287.05 659.44 302.04 669.5 310.76C671.95 307.17 672.9 302.51 675.16 298.67C680.66 289.32 693.34 275.73 703.87 272.5C697.39 281.24 691.36 289.59 689.15 300.54C684.59 323.09 698.57 347.44 718.08 358.42C726.61 363.23 735.49 364.86 744.98 366.5C736.43 369.96 724.33 368.92 715.45 367.17C669.82 358.18 638.17 310.68 654.5 265.2ZM753.5 270.28C754.31 270.67 755.31 270.85 755.78 271.73C755.83 271.84 757.43 286.21 757.36 286.5C756.68 283.86 756.15 280.1 754.76 277.7C752.87 274.43 749.17 274.41 753.5 270.28ZM730.5 282.1C728.72 288.7 733.26 289.17 737.46 293.03C745.02 299.97 751.08 307.67 756.5 316.35C756.8 311.97 753.94 307.7 751.6 303.87C746.1 294.87 739.04 288.15 730.5 282.1Z" fill="#000000" fill-rule="evenodd" stroke="#000000" stroke-width="0.25" stroke-linejoin="round"/>
  <path d="M1406.5 325.14C1397.96 325.14 1389.43 325.14 1380.89 325.14C1380.89 291.6 1380.89 258.05 1380.89 224.5C1360.26 224.5 1339.63 224.5 1319 224.5C1319 234.5 1319 244.5 1319 254.5C1325.7 254.5 1332.4 254.5 1339.1 254.5C1339.1 274.17 1339.1 293.83 1339.1 313.5C1331.35 320.19 1307.44 330.54 1303.14 315.42C1301 307.89 1302.08 299.25 1302.08 291.5C1302.08 277.17 1302.08 262.83 1302.08 248.5C1302.08 240.67 1302.97 232.15 1301.5 224.5C1290.5 224.48 1279.5 224.5 1268.5 224.5C1263.18 224.5 1256.8 225.41 1252.01 223.5C1268.08 207.45 1287.54 195.63 1310.5 193.04C1363.46 187.07 1410.06 225.79 1414.94 278.5C1416.41 294.44 1412.98 310.64 1406.5 325.14ZM1233.5 255.16C1240.31 253.67 1253.9 253.45 1260.5 255.38C1260.69 262.08 1260.56 268.8 1260.56 275.5C1260.56 285.17 1260.56 294.83 1260.56 304.5C1260.56 325.14 1260.66 345.66 1283.3 354.22C1287.19 355.69 1291.33 356.68 1295.5 357C1301.5 357.47 1307.57 357.14 1313.45 355.87C1322.89 353.84 1330.64 348.83 1339.09 344.6C1339.09 348.13 1339.09 351.65 1339.09 355.17C1354.01 355.17 1368.94 355.17 1383.87 355.17C1374.51 367.28 1351.12 375.9 1336.52 378.18C1280 386.98 1227.49 343.28 1228 285.5C1228.1 275.24 1230.01 264.79 1233.5 255.16Z" fill="#ED1C24" fill-rule="evenodd" stroke="#ED1C24" stroke-width="0.25" stroke-linejoin="round"/>
</svg>